<svg xmlns="http://www.w3.org/2000/svg" viewBox="0 0 48 48" width="48" height="48" fill="none">
	<g>
		<path fill="#7c5ef5" d="M24 4c.41 0 .82.09 1.19.27l15 7.14c.67.32 1.09 1 .99 1.73l-2.13 15.7c-1.13 8.36-6.98 13.7-13.05 15.97a2.01 2.01 0 0 1-1.5 0C15.44 42.84 9.59 37.5 8.46 29.14L6.33 13.44a1.5 1.5 0 0 1 .99-1.73l15-7.14A2.01 2.01 0 0 1 24 4zm0 2.2L9.33 13.1l2.01 14.8c.97 7.2 6.01 11.8 12.66 14.2 6.65-2.4 11.69-7 12.66-14.2l2.01-14.8L24 6.2z"/>
		<path fill="#47bfff" d="M24 11a2 2 0 0 1 2 2v8a2 2 0 1 1-4 0v-8a2 2 0 0 1 2-2zm0 18a2 2 0 1 1 0 4 2 2 0 0 1 0-4z"/>
	</g>
</svg>